# xmcd
#
# Track frame offsets:
#	150
#	16520
#	30484
#	44147
#	57838
#	72035
#	86454
#	102667
#	117594
#	134001
#	150793
#	166833
#	184627
#	200808
#	218678
#	235490
#	251791
#	266999
#	284867
#	303789
#	318875
#	335301
#
# Disc length: 4687 seconds
#
# Revision: 4
# Processed by: cddbd v1.5.2PL0 Copyright (c) Steve Scherf et al.
# Submitted via: EasyCDDAExtractor 15.2.5.1
#
DISCID=40124d16
DTITLE=Alabama - The Essential Alabama ( Disc One)
DYEAR=1998
DGENRE=Country
TTITLE0=Five O'Clock 500
TTITLE1=Keepin' Up
TTITLE2=How Do You Fall In Love
TTITLE3=Tennessee River
TTITLE4=Why Lady Why
TTITLE5=Old Flame
TTITLE6=Feels So Right
TTITLE7=Love In The First Degree
TTITLE8=Mountain Music
TTITLE9=Take Me Down
TTITLE10=Close Enough To Perfect
TTITLE11=Dixieland Delight
TTITLE12=The Closer You Get
TTITLE13=Lady Down On Love
TTITLE14=Roll On (Eighteen Wheeler)
TTITLE15=When We Make Love
TTITLE16=If You're Gonna Play In Texas (You Gotta Have A Fiddle In The Band)
TTITLE17=(There's A) Fire In The Night
TTITLE18=There's No Way
TTITLE19=Forty Hour Week (For A Livin')
TTITLE20=Can't Keep A Good Man Down
TTITLE21=She And I
EXTD=YEAR: 1998
EXTT0=
EXTT1=
EXTT2=
EXTT3=
EXTT4=
EXTT5=
EXTT6=
EXTT7=
EXTT8=
EXTT9=
EXTT10=
EXTT11=
EXTT12=
EXTT13=
EXTT14=
EXTT15=
EXTT16=
EXTT17=
EXTT18=
EXTT19=
EXTT20=
EXTT21=
PLAYORDER=
